<svg version="1.1" id="Layer_1" xmlns="http://www.w3.org/2000/svg" xmlns:xlink="http://www.w3.org/1999/xlink" x="0px" y="0px"
	 width="100%" viewBox="0 0 1024 1024" enable-background="new 0 0 1024 1024" xml:space="preserve">
<path fill="#000000" opacity="1.000000" stroke="none" 
	d="
M460.247101,362.752563 
	C458.250793,360.619781 456.497681,358.738892 454.744568,356.858002 
	C454.598022,356.990540 454.451447,357.123077 454.304901,357.255615 
	C456.985382,361.405853 459.652527,365.564758 462.350220,369.703766 
	C464.943817,373.683105 467.569061,377.641846 470.358093,381.879608 
	C466.380615,383.238678 463.213196,381.638428 460.061157,381.148010 
	C445.924286,378.948578 431.822815,376.512177 417.735077,374.012054 
	C413.248047,373.215729 409.326721,371.107758 405.443085,367.012817 
	C412.133881,364.651489 418.261078,362.489105 425.191437,360.043243 
	C418.090485,357.892914 411.450745,358.378479 405.012207,357.478119 
	C397.767090,356.464905 390.448944,355.852234 383.141388,355.456665 
	C379.288391,355.248138 377.067230,353.730774 375.637299,350.178558 
	C374.298676,346.853088 372.377899,343.761993 370.150970,339.488617 
	C392.896149,343.079620 414.424286,346.478485 435.952423,349.877319 
	C436.003998,349.638062 436.055542,349.398804 436.107117,349.159546 
	C416.732178,343.181396 397.355438,337.209076 377.984039,331.219299 
	C374.802002,330.235382 371.710999,328.787537 368.461670,328.222198 
	C358.549622,326.497711 357.463379,317.575897 353.535889,310.731232 
	C380.302429,319.750275 407.167999,327.698669 434.264771,335.024872 
	C419.415314,328.573578 404.575836,322.099091 389.713257,315.678192 
	C377.174316,310.261108 364.622833,304.872375 352.049713,299.535126 
	C343.033203,295.707581 340.853668,290.777191 344.052765,281.006195 
	C345.798859,280.159912 347.276794,281.166962 348.743469,281.841217 
	C392.032928,301.742859 435.765808,320.619019 479.924316,338.506287 
	C481.802521,339.267090 482.909485,340.377228 483.765991,342.101410 
	C486.063721,346.726715 488.011230,351.618286 490.939087,355.817596 
	C495.924683,362.968323 493.109131,370.084900 491.772614,377.249176 
	C491.279755,379.890961 490.937927,382.695312 493.380096,384.036377 
	C499.846832,387.587372 505.601624,391.808441 509.714600,399.520538 
	C513.528687,391.472992 519.706726,387.656281 526.047791,384.006592 
	C527.272705,383.301636 527.818481,382.024567 527.849915,380.612732 
	C527.875854,379.450409 528.157959,378.109894 527.698608,377.148346 
	C521.019714,363.166962 530.433655,352.784943 535.568909,341.447723 
	C536.409363,339.592163 538.153442,338.952728 539.856018,338.260529 
	C585.075256,319.876160 629.793640,300.334320 674.233948,280.148407 
	C675.564880,279.543884 676.862122,278.643738 678.465881,279.002380 
	C680.167053,285.585083 675.138184,296.069519 669.158569,298.504730 
	C641.850952,309.625916 615.006958,321.817322 588.009583,333.654999 
	C585.583923,334.718597 583.110352,335.672913 580.721497,336.869080 
	C609.088379,328.059631 637.779175,320.313690 666.039185,310.475861 
	C661.715210,317.222382 660.532166,325.635651 650.710999,328.423370 
	C627.538147,335.000946 604.685730,342.707458 581.775574,350.273010 
	C603.733826,346.789062 625.692017,343.305084 649.095215,339.591858 
	C646.117798,345.265533 644.214905,349.900177 641.405151,353.897278 
	C639.476440,356.640961 635.646423,355.896729 632.545776,356.184296 
	C619.873413,357.359680 607.199097,358.513947 594.441040,360.346039 
	C600.611206,362.410034 606.781433,364.474030 613.727783,366.797638 
	C610.113892,370.263947 607.061829,373.110504 603.222351,373.824402 
	C586.045410,377.018066 568.795471,379.819824 551.567627,382.738190 
	C551.119324,382.814117 550.622437,382.603333 549.348572,382.396271 
	C552.845825,374.428894 558.562500,368.095947 562.175232,360.605164 
	C556.110474,364.171844 526.618530,398.235474 523.764343,405.192017 
	C528.190674,405.060486 530.399841,408.077606 532.795776,411.086792 
	C539.748535,419.819061 546.904114,428.389587 553.895691,437.091339 
	C555.092590,438.580902 557.889221,440.488373 554.731079,442.292419 
	C552.001526,443.851562 549.722961,448.340790 545.373535,444.259857 
	C539.670044,438.908539 533.577087,433.972443 527.651672,428.857727 
	C527.932190,428.458466 528.212708,428.059204 528.493286,427.659912 
	C531.167358,432.804413 533.829285,437.955322 536.521057,443.090546 
	C537.758423,445.451080 539.064331,447.775574 540.320007,450.126678 
	C541.045471,451.485046 541.784851,452.983215 540.337646,454.226379 
	C537.354065,456.789490 534.250000,459.212402 530.671570,462.118439 
	C524.912720,448.863556 519.458496,436.309906 514.004272,423.756256 
	C514.424500,433.914764 515.976929,443.827026 518.407288,453.563110 
	C519.331970,457.267212 519.423950,460.322601 516.505737,463.127960 
	C513.480774,466.035828 514.035889,471.109955 510.274323,473.859894 
	C506.976379,472.271698 507.147491,468.350769 505.105347,466.261230 
	C499.552734,460.579651 501.056732,454.448303 502.578461,447.848572 
	C504.366516,440.093750 505.416321,432.168732 506.518555,424.217773 
	C500.052460,436.342438 494.605499,448.919647 489.536682,462.023254 
	C485.377960,460.031525 482.746796,456.973877 479.710724,454.518524 
	C477.643829,452.847046 479.272583,450.847839 480.148682,449.113220 
	C483.900635,441.684448 487.687500,434.273376 490.950226,426.449341 
	C485.839783,431.925995 480.729706,437.403046 475.618744,442.879211 
	C472.197998,446.544373 465.911743,445.600098 463.799103,441.140137 
	C463.055176,439.569733 464.052704,438.672180 464.888763,437.631897 
	C472.715118,427.893463 480.601990,418.202026 488.290253,408.355560 
	C490.149384,405.974548 492.632538,405.550781 496.327209,404.722992 
	C485.372894,389.428894 473.130280,376.052063 460.247101,362.752563 
z"/>
<path fill="#000000" opacity="1.000000" stroke="none" 
	d="
M766.781738,559.773438 
	C772.302307,554.674561 777.776672,549.989136 781.767456,543.966675 
	C785.368835,538.531799 786.747986,534.436829 778.112854,533.256165 
	C777.267151,533.140564 776.526550,532.770813 776.241516,531.636475 
	C776.447571,529.302185 778.427429,529.697693 779.957336,529.689148 
	C789.617310,529.635254 799.277832,529.627686 808.937561,529.697815 
	C810.437439,529.708679 812.728149,529.062073 812.858704,531.525574 
	C812.972473,533.673706 810.772705,533.289917 809.447510,533.564514 
	C804.036194,534.685913 799.538208,537.451050 795.677856,541.243347 
	C785.579041,551.163635 775.615295,561.221802 765.478760,571.102966 
	C763.323486,573.203857 763.122314,574.686584 765.336426,576.830261 
	C779.214172,590.266418 792.435913,604.375427 806.785461,617.327209 
	C812.058228,622.086365 817.748779,626.038269 825.315918,626.033264 
	C826.763550,626.032288 828.707825,626.202881 828.728149,628.151611 
	C828.754089,630.634644 826.519592,630.220764 824.980225,630.225525 
	C810.323425,630.270630 795.666443,630.256226 781.009521,630.228699 
	C779.551819,630.225952 777.570435,630.507263 777.210754,628.677490 
	C776.737488,626.269958 779.084351,626.408752 780.557495,625.935120 
	C785.577881,624.320984 786.957031,621.843323 783.821472,618.569458 
	C772.238220,606.475281 760.338562,594.684265 747.494385,581.704651 
	C747.494385,595.336975 747.147156,607.255737 747.670471,619.136108 
	C747.871094,623.688599 752.154724,625.299744 756.439758,625.864258 
	C758.142700,626.088562 760.822571,625.778625 760.747192,628.179382 
	C760.655823,631.089172 757.803955,630.194519 756.024841,630.206177 
	C744.199951,630.283630 732.373962,630.272034 720.549011,630.192810 
	C718.886230,630.181702 716.281616,630.915894 716.110107,628.323364 
	C715.935974,625.692383 718.599670,626.193970 720.255493,625.947510 
	C727.705750,624.838379 730.415710,622.515808 730.492310,614.982849 
	C730.729309,591.667786 730.722656,568.347168 730.485168,545.032043 
	C730.406921,537.351685 727.735657,534.936951 720.057861,533.435913 
	C718.461731,533.123901 716.120850,533.841187 716.066284,530.926147 
	C717.047974,529.281067 718.692810,529.696106 720.089600,529.691650 
	C732.414551,529.652527 744.739990,529.640564 757.064514,529.724304 
	C758.679749,529.735291 761.348022,528.852783 761.349060,531.634033 
	C761.349915,534.022949 758.826355,533.164734 757.351135,533.408142 
	C749.155457,534.760498 747.283997,536.887695 747.240601,545.320374 
	C747.195984,553.981079 747.200256,562.642151 747.222656,571.302917 
	C747.226379,572.732239 747.432495,574.160950 747.650269,576.926025 
	C754.496887,570.792236 760.510437,565.404785 766.781738,559.773438 
z"/>
<path fill="#000000" opacity="1.000000" stroke="none" 
	d="
M264.931152,632.292542 
	C251.761902,632.527710 239.662231,630.430664 228.362076,624.204956 
	C194.960068,605.802368 195.294891,564.399902 220.836136,542.055115 
	C237.610382,527.380127 257.173889,524.308350 278.372589,530.148987 
	C281.096893,530.899597 283.810699,531.771790 286.411346,532.867737 
	C290.150696,534.443604 292.893066,533.912537 294.385376,529.834473 
	C294.788116,528.733826 295.093506,527.504517 296.670959,527.701355 
	C298.194641,527.891479 298.378876,529.132751 298.493256,530.294739 
	C299.372406,539.226501 300.237183,548.159729 301.052551,557.097473 
	C301.158752,558.261841 301.011230,559.642822 299.525024,559.830200 
	C297.590790,560.074158 297.067444,558.443542 296.550812,557.039429 
	C292.189606,545.186218 283.085358,538.675110 271.463806,535.435242 
	C248.218079,528.954895 225.407898,544.981873 222.313293,569.506042 
	C220.661636,582.595032 221.772720,595.016785 228.944778,606.514282 
	C239.460663,623.372314 261.034180,630.271057 278.711792,622.363770 
	C282.892944,620.493530 285.347961,618.107361 285.009491,612.958496 
	C284.540619,605.826050 284.928650,598.639648 284.875732,591.476868 
	C284.813904,583.109741 283.363617,581.341125 275.353058,579.465027 
	C273.888916,579.122070 271.464844,579.707947 271.868500,577.097717 
	C272.184723,575.052673 274.265900,575.723328 275.628204,575.716858 
	C287.288879,575.661316 298.950104,575.657227 310.610657,575.724365 
	C312.108368,575.732971 314.416992,575.066406 314.560333,577.514221 
	C314.682129,579.594116 312.486603,579.252808 311.153259,579.620667 
	C303.638428,581.694397 302.322388,583.157898 302.136688,591.111572 
	C301.938446,599.603088 301.910309,608.103882 302.068115,616.595825 
	C302.135986,620.247620 300.754761,622.372375 297.508026,624.017944 
	C287.391663,629.145264 276.804230,632.207703 264.931152,632.292542 
z"/>
<path fill="#000000" opacity="1.000000" stroke="none" 
	d="
M651.690247,577.644287 
	C640.938599,592.443542 630.399414,606.953186 619.869995,621.449341 
	C621.654053,623.231873 623.419800,622.673218 624.979980,622.680908 
	C637.304565,622.741821 649.629944,622.773376 661.954285,622.689148 
	C673.285522,622.611694 677.716980,619.256653 681.577087,608.569702 
	C682.328125,606.490417 682.083496,602.336060 685.327271,603.291565 
	C688.182373,604.132507 686.136658,607.681702 685.841553,609.949890 
	C685.177185,615.055237 683.963135,620.091248 683.354065,625.200928 
	C682.915527,628.879944 681.379211,630.326294 677.584229,630.308960 
	C651.935608,630.192444 626.286255,630.256470 600.637207,630.218262 
	C599.053284,630.215881 597.092468,630.714355 596.148560,628.870117 
	C595.153015,626.924805 596.435364,625.398499 597.521912,623.898987 
	C617.062378,596.932190 636.599915,569.963257 656.126770,542.986572 
	C657.463074,541.140259 658.709656,539.228943 660.722290,536.290283 
	C645.701355,536.820129 631.779846,535.113586 617.978821,537.609253 
	C612.507019,538.598694 610.567749,543.224121 609.350891,548.173706 
	C608.765808,550.553589 609.224854,553.528015 606.409790,554.968872 
	C604.012817,553.782166 604.711121,551.721252 604.777344,550.043579 
	C604.993713,544.557007 605.437744,539.079895 605.710938,533.594971 
	C605.825867,531.287476 606.554504,529.729187 609.179688,529.733521 
	C633.826050,529.774231 658.472473,529.802734 683.118774,529.863220 
	C683.558716,529.864319 683.997803,530.215332 685.412109,530.819580 
	C674.124207,546.495300 663.013428,561.924927 651.690247,577.644287 
z"/>
<path fill="#000000" opacity="1.000000" stroke="none" 
	d="
M520.107178,569.150879 
	C527.881042,558.364502 535.442810,547.866272 543.768738,536.307190 
	C528.832703,536.780457 515.081726,535.254761 501.414032,537.479675 
	C496.942932,538.207581 494.347839,541.403198 492.972321,545.773254 
	C492.018707,548.802856 492.028534,552.236389 490.196747,554.849792 
	C487.434021,554.494141 487.673615,552.723633 487.735931,551.348755 
	C488.014679,545.198425 488.420258,539.053650 488.799347,532.908142 
	C489.011108,529.476013 491.573944,529.712158 493.923279,529.708496 
	C505.920685,529.689941 517.918091,529.689758 529.915466,529.685486 
	C540.579834,529.681702 551.244263,529.664246 561.908508,529.695129 
	C563.708740,529.700378 565.577881,529.352722 568.322632,530.899414 
	C546.401001,561.199158 524.563232,591.382812 502.720398,621.573669 
	C504.613586,623.211304 506.360809,622.684387 507.937500,622.691589 
	C520.267883,622.747864 532.598999,622.771057 544.929138,622.692078 
	C556.076294,622.620728 560.322388,619.465820 564.324768,608.993286 
	C565.171509,606.777710 564.785461,603.500244 568.127319,602.885742 
	C569.928406,603.850159 569.500488,605.311829 569.303772,606.546753 
	C568.231445,613.278748 567.076233,619.997620 565.932617,626.718140 
	C565.496948,629.278503 563.940308,630.267639 561.363159,630.263062 
	C535.202271,630.216553 509.041351,630.235291 482.880432,630.203491 
	C481.439117,630.201721 479.623962,630.497131 479.004791,628.698486 
	C478.250397,626.507080 479.799103,624.897583 480.952118,623.300964 
	C493.532898,605.879822 506.138519,588.476624 518.736633,571.067993 
	C519.127258,570.528198 519.509094,569.982117 520.107178,569.150879 
z"/>
<path fill="#000000" opacity="1.000000" stroke="none" 
	d="
M355.626556,565.000366 
	C355.404938,557.517273 356.164124,550.507080 355.135010,543.547913 
	C354.036285,536.118164 352.124298,534.320618 344.633301,533.314087 
	C343.151154,533.114990 340.753479,533.848694 340.951630,531.245422 
	C341.110870,529.153015 343.231506,529.722168 344.606476,529.717041 
	C356.931274,529.671143 369.256378,529.674927 381.581177,529.721252 
	C382.977783,529.726501 384.982758,529.241333 385.278320,531.285522 
	C385.609222,533.574280 383.491852,533.145447 382.136383,533.434753 
	C373.829651,535.207642 372.312256,537.020325 372.294220,545.637878 
	C372.256592,563.625549 372.199310,581.613831 372.300995,599.601013 
	C372.389130,615.186584 381.665253,624.520386 397.140961,624.739746 
	C400.457672,624.786743 403.854431,624.849365 407.086609,624.233948 
	C422.382080,621.321777 430.268463,612.030151 430.569336,595.944763 
	C430.887024,578.962158 430.740753,561.968567 430.624451,544.981018 
	C430.572845,537.445374 427.796082,534.556763 420.325653,533.361511 
	C418.800629,533.117432 416.842834,533.753418 416.190094,531.519592 
	C419.669556,528.777527 449.690002,528.881042 452.773193,531.646851 
	C452.193268,533.627014 450.468597,533.160583 449.072845,533.342896 
	C439.872284,534.544678 438.094147,536.506897 438.071350,545.919739 
	C438.032990,561.742249 438.104126,577.565002 438.068573,593.387512 
	C438.016418,616.612793 422.960083,631.862793 399.699738,632.281128 
	C388.717865,632.478577 378.091888,631.236633 368.764099,624.642212 
	C360.060120,618.488892 356.013000,609.824219 355.720428,599.475586 
	C355.400513,588.158630 355.634338,576.826050 355.626556,565.000366 
z"/>
<path fill="#000000" opacity="1.000000" stroke="none" 
	d="
M496.892792,369.120270 
	C497.816803,367.063568 499.162933,366.119995 500.960632,366.085815 
	C506.784454,365.975037 512.609924,365.943878 518.434937,365.909210 
	C520.811096,365.895050 522.065186,367.409332 522.740112,369.428497 
	C523.423523,371.473328 523.784729,373.629364 524.516418,375.653809 
	C525.701599,378.933411 524.590454,380.958496 521.618103,382.575928 
	C518.067688,384.507843 514.020691,385.688812 512.173462,390.130249 
	C511.202301,392.465210 508.902893,391.369476 507.809845,389.668579 
	C505.513702,386.095551 502.165802,384.155640 498.352173,382.711548 
	C495.651611,381.688934 494.448608,379.766113 495.157379,376.808563 
	C495.737457,374.387817 496.220825,371.943848 496.892792,369.120270 
z"/>
</svg>