<svg xmlns="http://www.w3.org/2000/svg" width="500" height="500" viewBox="0 0 500 500">
<g>
<path d="M 260.50 266.64 C243.04,271.31 222.84,262.33 214.61,246.25 C213.36,243.79 212.28,243.00 210.22,242.98 C204.24,242.95 204.69,241.34 211.56,238.12 C215.27,236.38 218.12,234.80 217.90,234.61 C217.68,234.41 214.12,234.85 210.00,235.58 C200.11,237.35 197.40,237.31 190.93,235.36 L 185.50 233.71 L 193.50 231.94 C206.87,228.98 207.97,227.88 196.92,228.53 C187.27,229.10 177.21,227.73 170.50,224.92 C167.55,223.69 167.62,223.66 174.00,222.89 C191.54,220.78 198.62,219.72 199.84,219.05 C200.58,218.65 195.55,218.01 188.65,217.64 C174.00,216.86 161.07,214.78 153.86,212.04 C148.31,209.93 140.51,205.16 141.31,204.36 C141.58,204.08 144.25,204.32 147.25,204.87 C150.24,205.42 160.08,206.13 169.10,206.45 L 185.50 207.02 L 176.83 204.56 C166.35,201.58 157.01,197.44 149.45,192.42 C143.49,188.47 132.66,179.01 133.32,178.34 C133.54,178.13 135.92,179.08 138.61,180.47 C141.30,181.85 147.06,183.89 151.42,184.99 C158.49,186.79 165.60,187.92 196.00,192.10 C205.95,193.47 210.57,194.95 215.65,198.41 L 219.35 200.92 L 223.30 197.35 C225.47,195.38 230.23,192.36 233.88,190.64 C239.93,187.77 241.36,187.50 250.50,187.50 C259.64,187.50 261.07,187.77 267.12,190.64 C270.77,192.36 275.61,195.46 277.89,197.52 C281.73,200.99 282.17,201.15 283.80,199.68 C287.16,196.64 296.55,193.20 304.50,192.11 C308.90,191.51 319.36,190.10 327.74,188.98 C342.73,186.97 357.29,183.45 363.19,180.40 C368.20,177.81 367.41,179.47 360.87,185.30 C349.65,195.30 330.25,204.40 317.33,205.73 C309.21,206.57 309.93,207.91 318.24,207.42 C340.63,206.09 355.79,204.91 358.00,204.32 C360.28,203.71 360.38,203.80 359.07,205.40 C357.45,207.37 351.68,210.48 345.60,212.67 C338.92,215.06 326.37,216.96 312.57,217.67 C305.47,218.03 300.52,218.64 301.57,219.02 C304.88,220.21 316.12,221.89 325.50,222.61 L 334.50 223.29 L 330.46 225.09 C324.25,227.86 313.57,229.21 304.00,228.44 C299.33,228.07 295.81,228.08 296.18,228.48 C297.04,229.38 310.68,232.99 313.43,233.04 C315.33,233.07 315.29,233.19 313.00,234.49 C308.94,236.78 302.53,237.31 293.90,236.05 C289.45,235.39 285.56,235.11 285.25,235.42 C284.95,235.72 287.24,237.14 290.36,238.56 C296.48,241.37 296.89,243.00 291.46,243.00 C288.45,243.00 287.78,243.50 285.91,247.17 C283.26,252.38 275.13,260.38 269.65,263.18 C267.37,264.35 263.25,265.91 260.50,266.64 ZM 237.86 220.77 L 250.38 233.04 L 254.44 229.28 C265.49,219.06 270.59,214.00 275.23,208.69 L 280.30 202.89 L 276.52 199.02 C274.45,196.90 270.00,193.90 266.63,192.35 C261.24,189.88 259.35,189.54 251.00,189.58 C239.56,189.63 232.58,191.98 225.60,198.12 L 220.99 202.18 L 223.17 205.34 C224.36,207.08 230.97,214.02 237.86,220.77 ZM 241.73 264.98 C243.81,265.50 248.78,265.75 252.79,265.54 C260.82,265.11 269.81,261.59 275.78,256.54 C279.03,253.79 284.64,246.38 285.20,244.07 C285.37,243.41 283.25,242.00 280.50,240.94 C280.15,240.80 279.83,240.68 279.52,240.56 C276.59,239.42 275.46,238.98 275.26,239.24 C275.14,239.41 275.38,239.85 275.76,240.56 C275.82,240.67 275.89,240.80 275.96,240.93 C277.74,244.26 277.06,253.00 275.03,253.00 C274.61,253.00 273.00,251.17 271.45,248.93 C268.16,244.18 264.82,242.25 256.58,240.33 C251.32,239.10 249.82,239.12 244.05,240.54 C235.87,242.55 230.61,245.91 228.16,250.68 L 226.27 254.37 L 225.02 252.04 C224.29,250.66 223.96,247.72 224.24,244.85 C224.73,239.74 224.48,239.45 220.80,240.92 C219.53,241.42 217.71,242.09 216.74,242.39 C215.17,242.89 215.31,243.47 218.08,247.98 C222.88,255.77 232.41,262.62 241.73,264.98 ZM 353.00 348.29 C353.83,348.59 350.23,348.85 345.00,348.86 C337.76,348.87 336.09,348.64 337.97,347.89 C339.33,347.34 340.79,346.36 341.21,345.70 C341.63,345.04 341.98,336.99 341.98,327.82 C342.00,314.50 341.71,310.85 340.54,309.68 C339.25,308.40 339.45,308.16 342.17,307.76 C343.87,307.51 346.62,307.58 348.27,307.92 C350.95,308.47 351.09,308.68 349.63,309.89 C348.38,310.93 348.00,313.05 348.00,319.12 C348.00,323.46 348.26,327.00 348.57,327.00 C348.88,327.00 351.83,324.64 355.12,321.75 C362.12,315.62 365.32,311.00 364.34,308.44 C363.80,307.03 364.02,306.79 365.41,307.33 C366.37,307.70 368.81,308.00 370.83,308.00 L 374.50 308.01 L 371.50 309.89 C369.85,310.93 365.46,314.88 361.75,318.66 L 355.01 325.54 L 365.33 335.83 C372.21,342.69 376.96,346.58 379.57,347.51 C383.34,348.86 383.04,348.91 372.00,348.89 C364.13,348.88 361.21,348.59 362.75,347.97 C363.99,347.47 365.00,346.48 365.00,345.76 C365.00,344.42 350.03,329.00 348.73,329.00 C348.33,329.00 348.00,332.53 348.00,336.85 C348.00,344.86 348.83,346.76 353.00,348.29 ZM 157.50 347.47 C153.18,349.61 141.42,350.55 136.99,349.12 C125.93,345.53 118.93,336.11 120.42,326.81 C121.73,318.61 127.25,311.48 134.72,308.35 C138.61,306.72 149.50,306.58 153.87,308.11 C156.20,308.92 157.40,308.91 158.39,308.09 C159.47,307.20 159.87,307.61 160.37,310.11 C161.22,314.35 161.16,318.00 160.25,317.99 C159.84,317.99 158.78,316.72 157.90,315.18 C154.45,309.11 143.83,307.17 136.50,311.27 C130.57,314.59 127.78,320.61 128.21,329.12 C128.63,337.38 132.00,342.84 138.58,345.93 C143.77,348.37 146.82,348.52 151.53,346.55 L 155.00 345.10 L 155.00 337.61 C155.00,331.00 154.74,329.93 152.78,328.56 C150.69,327.10 151.08,327.00 159.03,327.08 C165.84,327.14 166.97,327.35 164.79,328.15 C162.18,329.10 162.07,329.45 161.79,337.32 L 161.50 345.50 ZM 272.54 346.25 L 271.96 349.00 L 253.98 349.00 C244.09,349.00 236.00,348.80 236.00,348.56 C236.00,348.32 242.12,339.66 249.60,329.31 L 263.20 310.50 L 255.35 310.20 C245.10,309.82 243.17,310.38 241.48,314.28 L 240.08 317.50 L 240.00 308.00 L 273.03 308.00 L 262.37 322.75 C256.50,330.86 250.42,339.14 248.85,341.14 C247.28,343.15 246.00,345.29 246.00,345.89 C246.00,346.61 248.92,347.00 254.38,347.00 C266.00,347.00 268.95,346.26 270.88,342.85 C271.77,341.29 272.80,340.01 273.16,340.01 C273.80,340.00 273.74,340.55 272.54,346.25 ZM 322.17 345.00 L 321.79 349.00 L 303.34 349.00 C288.83,349.00 285.05,348.73 285.65,347.75 C286.07,347.06 292.38,338.29 299.67,328.25 L 312.93 310.00 L 303.72 310.02 C293.59,310.03 292.31,310.48 290.33,314.66 C289.03,317.41 289.00,317.37 289.54,313.04 C289.84,310.58 290.23,308.43 290.41,308.26 C290.58,308.09 297.73,308.07 306.30,308.22 L 321.89 308.50 L 308.53 327.00 C301.18,337.17 295.53,345.88 295.98,346.35 C296.43,346.81 301.38,347.04 306.99,346.85 C316.66,346.52 317.29,346.36 319.54,343.75 C320.84,342.24 322.05,341.00 322.23,341.00 C322.41,341.00 322.38,342.80 322.17,345.00 ZM 209.28 348.63 C204.74,350.56 197.24,350.29 192.22,348.01 C185.49,344.96 184.05,340.73 184.02,323.95 C184.01,314.77 183.61,310.01 182.80,309.20 C181.87,308.27 182.99,308.00 187.87,308.00 C193.57,308.00 194.00,308.14 192.57,309.57 C191.29,310.85 191.00,313.76 191.00,325.32 C191.01,337.60 191.27,339.93 192.95,342.69 C197.52,350.18 211.14,348.70 214.64,340.33 C216.70,335.40 216.54,311.68 214.43,309.57 C213.00,308.14 213.30,308.00 217.68,308.03 C221.44,308.05 222.12,308.28 220.75,309.08 C219.33,309.91 218.99,311.56 218.94,317.80 C218.90,322.03 218.52,329.23 218.08,333.78 C217.21,342.93 215.37,346.04 209.28,348.63 Z" fill="rgb(3,3,3)"/>
<path d="M 322.12 204.95 L 314.50 206.86 L 322.50 206.90 C324.14,206.92 326.19,206.87 328.46,206.79 C325.26,207.00 321.84,207.21 318.24,207.42 C309.93,207.91 309.21,206.57 317.33,205.73 C318.85,205.57 320.45,205.31 322.12,204.95 ZM 322.17 345.00 C322.38,342.80 322.41,341.00 322.23,341.00 C322.05,341.00 320.84,342.24 319.54,343.75 C317.69,345.91 316.93,346.39 311.29,346.68 C313.95,346.46 316.12,346.14 316.90,345.74 C319.32,344.49 320.35,343.10 321.45,339.61 C322.50,336.26 322.97,338.47 322.34,343.81 L 322.07 346.03 ZM 363.99 311.56 C364.00,311.52 364.00,311.49 364.00,311.46 C364.00,310.50 363.21,309.08 362.25,308.29 C360.75,307.06 360.90,306.93 364.07,307.36 C364.05,307.58 364.14,307.94 364.34,308.44 C364.66,309.27 364.54,310.32 363.99,311.56 ZM 272.54 346.25 C273.74,340.55 273.80,340.00 273.16,340.01 C272.87,340.01 272.14,340.84 271.41,341.98 C271.77,341.19 272.00,340.43 272.00,339.89 C272.00,338.85 272.47,338.00 273.05,338.00 C274.01,338.00 273.68,342.38 272.35,347.25 C272.33,347.30 272.32,347.35 272.30,347.40 ZM 360.87 185.30 C364.94,181.68 366.78,179.67 366.39,179.28 C366.80,179.64 365.10,181.55 361.30,184.96 C353.70,191.77 344.58,197.22 334.18,201.18 C343.89,197.30 353.94,191.47 360.87,185.30 ZM 354.65 322.17 C358.31,318.61 362.50,314.09 363.68,312.20 C362.35,314.71 359.47,317.94 355.12,321.75 C354.96,321.89 354.81,322.03 354.65,322.17 ZM 265.66 346.34 C263.24,346.84 259.73,347.00 254.38,347.00 C253.54,347.00 252.77,346.99 252.06,346.97 C253.46,346.96 255.13,346.91 257.10,346.84 C261.24,346.70 263.88,346.58 265.66,346.34 ZM 348.57 327.00 C348.26,327.00 348.00,323.46 348.00,319.12 C348.00,323.20 348.30,326.57 348.68,326.96 C348.63,326.99 348.59,327.00 348.57,327.00 ZM 308.55 327.00 C306.99,329.16 305.50,331.25 304.13,333.21 C305.49,331.25 306.97,329.16 308.53,327.00 L 321.89 308.50 ZM 367.16 307.72 C368.79,307.88 370.45,307.99 371.50,307.99 L 374.50 308.01 L 370.83 308.00 C369.62,308.00 368.26,307.89 367.16,307.72 ZM 246.19 345.25 C246.07,345.78 246.22,346.15 246.68,346.42 C246.23,346.27 246.00,346.10 246.00,345.89 C246.00,345.75 246.07,345.53 246.19,345.25 ZM 357.07 204.50 C357.32,204.45 357.54,204.41 357.72,204.36 C358.35,204.20 358.83,204.09 359.17,204.03 C358.88,204.09 358.49,204.19 358.00,204.32 C357.80,204.38 357.48,204.44 357.07,204.50 ZM 359.81 204.42 C359.68,204.64 359.43,204.97 359.07,205.41 C358.31,206.33 356.63,207.51 354.44,208.72 C356.63,207.50 358.31,206.33 359.07,205.40 C359.42,204.97 359.67,204.64 359.81,204.42 Z" fill="rgb(90,90,90)"/>
<path d="M 0.00 250.00 L 0.00 0.00 L 250.00 0.00 L 500.00 0.00 L 500.00 250.00 L 500.00 500.00 L 250.00 500.00 L 0.00 500.00 L 0.00 250.00 ZM 157.50 347.47 L 161.50 345.50 L 161.79 337.32 C162.07,329.45 162.18,329.10 164.79,328.15 C166.97,327.35 165.84,327.14 159.03,327.08 C151.08,327.00 150.69,327.10 152.78,328.56 C154.74,329.93 155.00,331.00 155.00,337.61 L 155.00 345.10 L 151.53 346.55 C146.82,348.52 143.77,348.37 138.58,345.93 C132.00,342.84 128.63,337.38 128.21,329.12 C127.78,320.61 130.57,314.59 136.50,311.27 C143.83,307.17 154.45,309.11 157.90,315.18 C158.78,316.72 159.84,317.99 160.25,317.99 C161.16,318.00 161.22,314.35 160.37,310.11 C159.87,307.61 159.47,307.20 158.39,308.09 C157.40,308.91 156.20,308.92 153.87,308.11 C149.50,306.58 138.61,306.72 134.72,308.35 C127.25,311.48 121.73,318.61 120.42,326.81 C118.93,336.11 125.93,345.53 136.99,349.12 C141.42,350.55 153.18,349.61 157.50,347.47 ZM 209.28 348.63 C215.37,346.04 217.21,342.93 218.08,333.78 C218.52,329.23 218.90,322.03 218.94,317.80 C218.99,311.56 219.33,309.91 220.75,309.08 C222.12,308.28 221.44,308.05 217.68,308.03 C213.30,308.00 213.00,308.14 214.43,309.57 C216.54,311.68 216.70,335.40 214.64,340.33 C211.14,348.70 197.52,350.18 192.95,342.69 C191.27,339.93 191.01,337.60 191.00,325.32 C191.00,313.76 191.29,310.85 192.57,309.57 C194.00,308.14 193.57,308.00 187.87,308.00 C182.99,308.00 181.87,308.27 182.80,309.20 C183.61,310.01 184.01,314.77 184.02,323.95 C184.05,340.73 185.49,344.96 192.22,348.01 C197.24,350.29 204.74,350.56 209.28,348.63 ZM 272.35 347.25 C273.68,342.38 274.01,338.00 273.05,338.00 C272.47,338.00 272.00,338.85 272.00,339.89 C272.00,340.93 271.15,342.83 270.10,344.12 C268.36,346.27 267.31,346.49 257.10,346.84 C244.63,347.27 244.26,347.01 248.85,341.14 C250.42,339.14 256.50,330.86 262.37,322.75 L 273.03 308.00 L 256.51 308.00 L 240.00 308.00 L 240.04 312.75 L 240.08 317.50 L 241.48 314.28 C243.17,310.38 245.10,309.82 255.35,310.20 L 263.20 310.50 L 249.60 329.31 C242.12,339.66 236.00,348.32 236.00,348.56 C236.00,348.80 244.07,349.00 253.93,349.00 C270.16,349.00 271.91,348.83 272.35,347.25 ZM 322.34 343.81 C322.97,338.47 322.50,336.26 321.45,339.61 C320.35,343.10 319.32,344.49 316.90,345.74 C314.30,347.07 296.43,347.51 295.66,346.25 C295.41,345.84 301.21,337.17 308.55,327.00 L 321.89 308.50 L 306.30 308.22 C297.73,308.07 290.58,308.09 290.41,308.26 C290.23,308.43 289.84,310.58 289.54,313.04 C289.00,317.37 289.03,317.41 290.33,314.66 C292.31,310.48 293.59,310.03 303.72,310.02 L 312.93 310.00 L 299.67 328.25 C292.38,338.29 286.07,347.06 285.65,347.75 C285.05,348.73 288.82,349.00 303.30,349.00 L 321.72 349.00 L 322.34 343.81 ZM 353.00 348.29 C348.83,346.76 348.00,344.86 348.00,336.85 C348.00,332.53 348.33,329.00 348.73,329.00 C350.03,329.00 365.00,344.42 365.00,345.76 C365.00,346.48 363.99,347.47 362.75,347.97 C361.21,348.59 364.13,348.88 372.00,348.89 C383.04,348.91 383.34,348.86 379.57,347.51 C376.96,346.58 372.21,342.69 365.33,335.83 L 355.01 325.54 L 361.75 318.66 C365.46,314.88 369.85,310.93 371.50,309.89 L 374.50 308.01 L 371.50 307.99 C369.85,307.98 366.70,307.73 364.50,307.42 C360.92,306.92 360.68,307.01 362.25,308.29 C363.21,309.08 364.00,310.50 364.00,311.46 C364.00,313.10 350.36,327.00 348.75,327.00 C348.34,327.00 348.00,323.46 348.00,319.12 C348.00,313.05 348.38,310.93 349.63,309.89 C351.09,308.68 350.95,308.47 348.27,307.92 C346.62,307.58 343.87,307.51 342.17,307.76 C339.45,308.16 339.25,308.40 340.54,309.68 C341.71,310.85 342.00,314.50 341.98,327.82 C341.98,336.99 341.63,345.04 341.21,345.70 C340.79,346.36 339.33,347.34 337.97,347.89 C336.09,348.64 337.76,348.87 345.00,348.86 C350.23,348.85 353.83,348.59 353.00,348.29 ZM 260.50 266.64 C263.25,265.91 267.37,264.35 269.65,263.18 C275.13,260.38 283.26,252.38 285.91,247.17 C287.78,243.50 288.45,243.00 291.46,243.00 C296.89,243.00 296.48,241.37 290.36,238.56 C287.24,237.14 284.95,235.72 285.25,235.42 C285.56,235.11 289.45,235.39 293.90,236.05 C302.53,237.31 308.94,236.78 313.00,234.49 C315.29,233.19 315.33,233.07 313.43,233.04 C310.68,232.99 297.04,229.38 296.18,228.48 C295.81,228.08 299.33,228.07 304.00,228.44 C313.57,229.21 324.25,227.86 330.46,225.09 L 334.50 223.29 L 325.50 222.61 C316.12,221.89 304.88,220.21 301.57,219.02 C300.52,218.64 305.47,218.03 312.57,217.67 C326.37,216.96 338.92,215.06 345.60,212.67 C351.67,210.49 357.44,207.38 359.07,205.41 C360.38,203.81 360.27,203.73 357.72,204.36 C353.62,205.38 331.73,206.96 322.50,206.90 L 314.50 206.86 L 322.00 204.98 C337.56,201.09 350.87,194.31 361.30,184.96 C367.45,179.44 368.10,177.86 363.19,180.40 C357.29,183.45 342.73,186.97 327.74,188.98 C319.36,190.10 308.90,191.51 304.50,192.11 C296.55,193.20 287.16,196.64 283.80,199.68 C282.17,201.15 281.73,200.99 277.89,197.52 C275.61,195.46 270.77,192.36 267.12,190.64 C261.07,187.77 259.64,187.50 250.50,187.50 C241.36,187.50 239.93,187.77 233.88,190.64 C230.23,192.36 225.47,195.38 223.30,197.35 L 219.35 200.92 L 215.65 198.41 C210.57,194.95 205.95,193.47 196.00,192.10 C165.60,187.92 158.49,186.79 151.42,184.99 C147.06,183.89 141.30,181.85 138.61,180.47 C135.92,179.08 133.54,178.13 133.32,178.34 C132.66,179.01 143.49,188.47 149.45,192.42 C157.01,197.44 166.35,201.58 176.83,204.56 L 185.50 207.02 L 169.10 206.45 C160.08,206.13 150.24,205.42 147.25,204.87 C144.25,204.32 141.58,204.08 141.31,204.36 C140.51,205.16 148.31,209.93 153.86,212.04 C161.07,214.78 174.00,216.86 188.65,217.64 C195.55,218.01 200.58,218.65 199.84,219.05 C198.62,219.72 191.54,220.78 174.00,222.89 C167.62,223.66 167.55,223.69 170.50,224.92 C177.21,227.73 187.27,229.10 196.92,228.53 C207.97,227.88 206.87,228.98 193.50,231.94 L 185.50 233.71 L 190.93 235.36 C197.40,237.31 200.11,237.35 210.00,235.58 C214.12,234.85 217.68,234.41 217.90,234.61 C218.12,234.80 215.27,236.38 211.56,238.12 C204.69,241.34 204.24,242.95 210.22,242.98 C212.28,243.00 213.36,243.79 214.61,246.25 C222.84,262.33 243.04,271.31 260.50,266.64 ZM 241.73 264.98 C232.41,262.62 222.88,255.77 218.08,247.98 C215.31,243.47 215.17,242.89 216.74,242.39 C217.71,242.09 219.53,241.42 220.80,240.92 C224.48,239.45 224.73,239.74 224.24,244.85 C223.96,247.72 224.29,250.66 225.02,252.04 L 226.27 254.37 L 228.16 250.68 C230.61,245.91 235.87,242.55 244.05,240.54 C249.82,239.12 251.32,239.10 256.58,240.33 C264.82,242.25 268.16,244.18 271.45,248.93 C273.00,251.17 274.61,253.00 275.03,253.00 C277.06,253.00 277.74,244.26 275.96,240.93 C274.71,238.58 274.42,238.58 280.50,240.94 C283.25,242.00 285.37,243.41 285.20,244.07 C284.64,246.38 279.03,253.79 275.78,256.54 C269.81,261.59 260.82,265.11 252.79,265.54 C248.78,265.75 243.81,265.50 241.73,264.98 ZM 237.86 220.77 C230.97,214.02 224.36,207.08 223.17,205.34 L 220.99 202.18 L 225.60 198.12 C232.58,191.98 239.56,189.63 251.00,189.58 C259.35,189.54 261.24,189.88 266.63,192.35 C270.00,193.90 274.45,196.90 276.52,199.02 L 280.30 202.89 L 275.23 208.69 C270.59,214.00 265.49,219.06 254.44,229.28 L 250.38 233.04 L 237.86 220.77 Z" fill="rgb(254,254,254)"/>
</g>
</svg>